<mxfile host="app.diagrams.net" modified="2020-12-28T07:16:35.472Z" agent="5.0 (Windows)" etag="tbIf6M-NDvTWLSYCMN3U" version="14.0.1" type="github">
  <diagram name="Page-1" id="13e1069c-82ec-6db2-03f1-153e76fe0fe0">
    <mxGraphModel dx="2522" dy="791" grid="1" gridSize="10" guides="1" tooltips="1" connect="1" arrows="1" fold="1" page="1" pageScale="1" pageWidth="1100" pageHeight="850" background="#ffffff" math="0" shadow="0">
      <root>
        <mxCell id="0" />
        <mxCell id="1" parent="0" />
        <mxCell id="7baba1c4bc27f4b0-2" value="&lt;div&gt;Simple-Push-Async MS&lt;/div&gt;" style="shape=umlLifeline;perimeter=lifelinePerimeter;whiteSpace=wrap;html=1;container=1;collapsible=0;recursiveResize=0;outlineConnect=0;rounded=1;shadow=0;comic=0;labelBackgroundColor=none;strokeWidth=1;fontFamily=Verdana;fontSize=12;align=center;" parent="1" vertex="1">
          <mxGeometry x="240" y="80" width="100" height="640" as="geometry" />
        </mxCell>
        <mxCell id="yZfTTTXvWRvX-hV6945o-7" value="" style="html=1;points=[];perimeter=orthogonalPerimeter;rounded=0;shadow=0;comic=0;labelBackgroundColor=none;strokeWidth=1;fontFamily=Verdana;fontSize=12;align=center;" vertex="1" parent="7baba1c4bc27f4b0-2">
          <mxGeometry x="45" y="130" width="10" height="390" as="geometry" />
        </mxCell>
        <mxCell id="yZfTTTXvWRvX-hV6945o-28" value="" style="html=1;points=[];perimeter=orthogonalPerimeter;rounded=0;shadow=0;comic=0;labelBackgroundColor=none;strokeWidth=1;fontFamily=Verdana;fontSize=12;align=center;" vertex="1" parent="7baba1c4bc27f4b0-2">
          <mxGeometry x="45" y="530" width="10" height="25" as="geometry" />
        </mxCell>
        <mxCell id="7baba1c4bc27f4b0-3" value="API / Long processing" style="shape=umlLifeline;perimeter=lifelinePerimeter;whiteSpace=wrap;html=1;container=1;collapsible=0;recursiveResize=0;outlineConnect=0;rounded=1;shadow=0;comic=0;labelBackgroundColor=none;strokeWidth=1;fontFamily=Verdana;fontSize=12;align=center;" parent="1" vertex="1">
          <mxGeometry x="400" y="80" width="100" height="640" as="geometry" />
        </mxCell>
        <mxCell id="yZfTTTXvWRvX-hV6945o-12" value="" style="html=1;points=[];perimeter=orthogonalPerimeter;rounded=0;shadow=0;comic=0;labelBackgroundColor=none;strokeWidth=1;fontFamily=Verdana;fontSize=12;align=center;" vertex="1" parent="7baba1c4bc27f4b0-3">
          <mxGeometry x="45" y="190" width="10" height="110" as="geometry" />
        </mxCell>
        <mxCell id="7baba1c4bc27f4b0-8" value="&lt;div&gt;APIGEE&lt;/div&gt;" style="shape=umlLifeline;perimeter=lifelinePerimeter;whiteSpace=wrap;html=1;container=1;collapsible=0;recursiveResize=0;outlineConnect=0;rounded=1;shadow=0;comic=0;labelBackgroundColor=none;strokeWidth=1;fontFamily=Verdana;fontSize=12;align=center;" parent="1" vertex="1">
          <mxGeometry x="100" y="80" width="100" height="640" as="geometry" />
        </mxCell>
        <mxCell id="yZfTTTXvWRvX-hV6945o-3" value="" style="html=1;points=[];perimeter=orthogonalPerimeter;rounded=0;shadow=0;comic=0;labelBackgroundColor=none;strokeWidth=1;fontFamily=Verdana;fontSize=12;align=center;" vertex="1" parent="7baba1c4bc27f4b0-8">
          <mxGeometry x="45" y="70" width="10" height="70" as="geometry" />
        </mxCell>
        <mxCell id="yZfTTTXvWRvX-hV6945o-1" value="" style="shape=image;html=1;verticalAlign=top;verticalLabelPosition=bottom;labelBackgroundColor=#ffffff;imageAspect=0;aspect=fixed;image=https://cdn4.iconfinder.com/data/icons/logos-and-brands-2/457/21_Angular_logo_logos-128.png;fontStyle=0" vertex="1" parent="1">
          <mxGeometry x="-30" y="10" width="70" height="70" as="geometry" />
        </mxCell>
        <mxCell id="yZfTTTXvWRvX-hV6945o-4" value="&lt;div&gt;Translate&lt;/div&gt;" style="html=1;verticalAlign=bottom;endArrow=block;labelBackgroundColor=none;fontFamily=Verdana;fontSize=12;elbow=vertical;edgeStyle=orthogonalEdgeStyle;curved=1;exitX=1.066;exitY=0.713;exitPerimeter=0;" edge="1" parent="1" target="7baba1c4bc27f4b0-8">
          <mxGeometry x="-0.5225" relative="1" as="geometry">
            <mxPoint x="155.65999999999985" y="160.0100000000001" as="sourcePoint" />
            <mxPoint x="150" y="199.10000000000002" as="targetPoint" />
            <Array as="points">
              <mxPoint x="205" y="160" />
              <mxPoint x="205" y="199" />
            </Array>
            <mxPoint as="offset" />
          </mxGeometry>
        </mxCell>
        <mxCell id="yZfTTTXvWRvX-hV6945o-5" value="&lt;div&gt;API Call&lt;/div&gt;" style="html=1;verticalAlign=bottom;endArrow=block;labelBackgroundColor=none;fontFamily=Verdana;fontSize=12;edgeStyle=elbowEdgeStyle;elbow=vertical;" edge="1" parent="1" target="7baba1c4bc27f4b0-8">
          <mxGeometry x="0.0702" relative="1" as="geometry">
            <mxPoint y="160" as="sourcePoint" />
            <mxPoint x="130" y="160" as="targetPoint" />
            <mxPoint as="offset" />
          </mxGeometry>
        </mxCell>
        <mxCell id="yZfTTTXvWRvX-hV6945o-6" value="Async Job" style="html=1;verticalAlign=bottom;endArrow=block;labelBackgroundColor=none;fontFamily=Verdana;fontSize=12;edgeStyle=elbowEdgeStyle;elbow=vertical;" edge="1" parent="1" target="7baba1c4bc27f4b0-2">
          <mxGeometry relative="1" as="geometry">
            <mxPoint x="150" y="214" as="sourcePoint" />
            <mxPoint x="260" y="213" as="targetPoint" />
            <Array as="points">
              <mxPoint x="270" y="213" />
            </Array>
          </mxGeometry>
        </mxCell>
        <mxCell id="yZfTTTXvWRvX-hV6945o-8" value="Job ID" style="html=1;verticalAlign=bottom;endArrow=open;dashed=1;endSize=8;labelBackgroundColor=none;fontFamily=Verdana;fontSize=12;edgeStyle=elbowEdgeStyle;elbow=vertical;" edge="1" parent="1" source="yZfTTTXvWRvX-hV6945o-7">
          <mxGeometry x="0.4386" relative="1" as="geometry">
            <mxPoint y="240" as="targetPoint" />
            <Array as="points">
              <mxPoint x="230" y="240" />
              <mxPoint x="260" y="240" />
            </Array>
            <mxPoint as="offset" />
          </mxGeometry>
        </mxCell>
        <mxCell id="yZfTTTXvWRvX-hV6945o-11" value="API call" style="html=1;verticalAlign=bottom;endArrow=block;labelBackgroundColor=none;fontFamily=Verdana;fontSize=12;edgeStyle=elbowEdgeStyle;elbow=vertical;" edge="1" parent="1" target="7baba1c4bc27f4b0-3">
          <mxGeometry relative="1" as="geometry">
            <mxPoint x="294" y="270" as="sourcePoint" />
            <mxPoint x="410" y="270" as="targetPoint" />
            <Array as="points">
              <mxPoint x="290" y="270" />
            </Array>
          </mxGeometry>
        </mxCell>
        <mxCell id="yZfTTTXvWRvX-hV6945o-16" value="&lt;div&gt;Long Processing&lt;/div&gt;" style="text;html=1;strokeColor=none;fillColor=none;align=center;verticalAlign=middle;whiteSpace=wrap;rounded=0;" vertex="1" parent="1">
          <mxGeometry x="460" y="300" width="70" height="40" as="geometry" />
        </mxCell>
        <mxCell id="yZfTTTXvWRvX-hV6945o-17" value="" style="html=1;points=[];perimeter=orthogonalPerimeter;rounded=0;shadow=0;comic=0;labelBackgroundColor=none;strokeWidth=1;fontFamily=Verdana;fontSize=12;align=center;" vertex="1" parent="1">
          <mxGeometry x="290" y="370" width="10" height="60" as="geometry" />
        </mxCell>
        <mxCell id="yZfTTTXvWRvX-hV6945o-18" value="&lt;div&gt;Async Job&lt;/div&gt;&lt;div&gt; Result&lt;/div&gt;" style="html=1;verticalAlign=bottom;endArrow=block;labelBackgroundColor=none;fontFamily=Verdana;fontSize=12;elbow=vertical;edgeStyle=orthogonalEdgeStyle;curved=1;exitX=1.066;exitY=0.713;exitPerimeter=0;" edge="1" parent="1">
          <mxGeometry x="0.2283" y="23" relative="1" as="geometry">
            <mxPoint x="300.65999999999985" y="380.0100000000001" as="sourcePoint" />
            <mxPoint x="294.5" y="419" as="targetPoint" />
            <Array as="points">
              <mxPoint x="350" y="380" />
              <mxPoint x="350" y="419" />
            </Array>
            <mxPoint x="10" y="-2" as="offset" />
          </mxGeometry>
        </mxCell>
        <mxCell id="yZfTTTXvWRvX-hV6945o-19" value="&lt;div&gt;API Result&lt;/div&gt;" style="html=1;verticalAlign=bottom;endArrow=open;dashed=1;endSize=8;labelBackgroundColor=none;fontFamily=Verdana;fontSize=12;edgeStyle=elbowEdgeStyle;elbow=vertical;exitX=-0.3;exitY=0.891;exitDx=0;exitDy=0;exitPerimeter=0;" edge="1" parent="1" source="yZfTTTXvWRvX-hV6945o-12">
          <mxGeometry relative="1" as="geometry">
            <mxPoint x="300" y="369" as="targetPoint" />
            <Array as="points">
              <mxPoint x="375" y="369" />
              <mxPoint x="405" y="369" />
            </Array>
            <mxPoint x="430" y="369" as="sourcePoint" />
          </mxGeometry>
        </mxCell>
        <mxCell id="yZfTTTXvWRvX-hV6945o-22" value="" style="html=1;points=[];perimeter=orthogonalPerimeter;rounded=0;shadow=0;comic=0;labelBackgroundColor=none;strokeWidth=1;fontFamily=Verdana;fontSize=12;align=center;" vertex="1" parent="1">
          <mxGeometry x="280" y="330" width="10" height="25" as="geometry" />
        </mxCell>
        <mxCell id="yZfTTTXvWRvX-hV6945o-23" value="&lt;div&gt;Job Processing&lt;/div&gt;" style="html=1;verticalAlign=bottom;endArrow=open;dashed=1;endSize=8;labelBackgroundColor=none;fontFamily=Verdana;fontSize=12;edgeStyle=elbowEdgeStyle;elbow=vertical;exitX=0;exitY=0.96;exitDx=0;exitDy=0;exitPerimeter=0;" edge="1" parent="1" source="yZfTTTXvWRvX-hV6945o-22">
          <mxGeometry x="0.4306" relative="1" as="geometry">
            <mxPoint y="355" as="targetPoint" />
            <Array as="points">
              <mxPoint x="215" y="355" />
              <mxPoint x="245" y="355" />
            </Array>
            <mxPoint x="270" y="355" as="sourcePoint" />
            <mxPoint as="offset" />
          </mxGeometry>
        </mxCell>
        <mxCell id="yZfTTTXvWRvX-hV6945o-20" value="&lt;div&gt;Async Job&lt;/div&gt;&lt;div&gt;Result Query&lt;/div&gt;" style="html=1;verticalAlign=bottom;endArrow=block;labelBackgroundColor=none;fontFamily=Verdana;fontSize=12;edgeStyle=elbowEdgeStyle;elbow=vertical;entryX=0.5;entryY=0;entryDx=0;entryDy=0;entryPerimeter=0;" edge="1" parent="1" target="yZfTTTXvWRvX-hV6945o-22">
          <mxGeometry x="-0.4386" relative="1" as="geometry">
            <mxPoint y="330" as="sourcePoint" />
            <mxPoint x="149.5" y="330" as="targetPoint" />
            <mxPoint as="offset" />
          </mxGeometry>
        </mxCell>
        <mxCell id="yZfTTTXvWRvX-hV6945o-24" value="" style="html=1;points=[];perimeter=orthogonalPerimeter;rounded=0;shadow=0;comic=0;labelBackgroundColor=none;strokeWidth=1;fontFamily=Verdana;fontSize=12;align=center;" vertex="1" parent="1">
          <mxGeometry x="280" y="464" width="10" height="25" as="geometry" />
        </mxCell>
        <mxCell id="yZfTTTXvWRvX-hV6945o-21" value="&lt;div&gt;Async Job&lt;/div&gt;&lt;div&gt;Result Query&lt;/div&gt;" style="html=1;verticalAlign=bottom;endArrow=block;labelBackgroundColor=none;fontFamily=Verdana;fontSize=12;edgeStyle=elbowEdgeStyle;elbow=vertical;" edge="1" parent="1">
          <mxGeometry x="-0.4386" relative="1" as="geometry">
            <mxPoint y="464" as="sourcePoint" />
            <mxPoint x="285" y="464" as="targetPoint" />
            <mxPoint as="offset" />
          </mxGeometry>
        </mxCell>
        <mxCell id="yZfTTTXvWRvX-hV6945o-25" value="&lt;div&gt;Job Result&lt;/div&gt;" style="html=1;verticalAlign=bottom;endArrow=open;dashed=1;endSize=8;labelBackgroundColor=none;fontFamily=Verdana;fontSize=12;edgeStyle=elbowEdgeStyle;elbow=vertical;exitX=0;exitY=0.96;exitDx=0;exitDy=0;exitPerimeter=0;" edge="1" parent="1">
          <mxGeometry x="0.4306" relative="1" as="geometry">
            <mxPoint y="490" as="targetPoint" />
            <Array as="points">
              <mxPoint x="215" y="490" />
              <mxPoint x="245" y="490" />
            </Array>
            <mxPoint x="280" y="489" as="sourcePoint" />
            <mxPoint as="offset" />
          </mxGeometry>
        </mxCell>
        <mxCell id="yZfTTTXvWRvX-hV6945o-26" value="" style="html=1;points=[];perimeter=orthogonalPerimeter;rounded=0;shadow=0;comic=0;labelBackgroundColor=none;strokeWidth=1;fontFamily=Verdana;fontSize=12;align=center;" vertex="1" parent="1">
          <mxGeometry x="290" y="530" width="10" height="60" as="geometry" />
        </mxCell>
        <mxCell id="yZfTTTXvWRvX-hV6945o-27" value="&lt;div&gt;Job Result&lt;/div&gt;&lt;div&gt;Expired&lt;br&gt;&lt;/div&gt;" style="html=1;verticalAlign=bottom;endArrow=block;labelBackgroundColor=none;fontFamily=Verdana;fontSize=12;elbow=vertical;edgeStyle=orthogonalEdgeStyle;curved=1;exitX=1.066;exitY=0.713;exitPerimeter=0;" edge="1" parent="1">
          <mxGeometry x="0.2283" y="23" relative="1" as="geometry">
            <mxPoint x="300.65999999999985" y="540.0100000000002" as="sourcePoint" />
            <mxPoint x="294.5" y="579" as="targetPoint" />
            <Array as="points">
              <mxPoint x="350" y="540" />
              <mxPoint x="350" y="579" />
            </Array>
            <mxPoint x="10" y="-2" as="offset" />
          </mxGeometry>
        </mxCell>
        <mxCell id="yZfTTTXvWRvX-hV6945o-29" value="&lt;div&gt;Async Job&lt;/div&gt;&lt;div&gt;Result Query&lt;/div&gt;" style="html=1;verticalAlign=bottom;endArrow=block;labelBackgroundColor=none;fontFamily=Verdana;fontSize=12;edgeStyle=elbowEdgeStyle;elbow=vertical;" edge="1" parent="1">
          <mxGeometry x="-0.4386" relative="1" as="geometry">
            <mxPoint y="610" as="sourcePoint" />
            <mxPoint x="285" y="610" as="targetPoint" />
            <mxPoint as="offset" />
          </mxGeometry>
        </mxCell>
        <mxCell id="yZfTTTXvWRvX-hV6945o-30" value="&lt;div&gt;Job Expired&lt;/div&gt;" style="html=1;verticalAlign=bottom;endArrow=open;dashed=1;endSize=8;labelBackgroundColor=none;fontFamily=Verdana;fontSize=12;edgeStyle=elbowEdgeStyle;elbow=vertical;exitX=0;exitY=0.96;exitDx=0;exitDy=0;exitPerimeter=0;" edge="1" parent="1">
          <mxGeometry x="0.4306" relative="1" as="geometry">
            <mxPoint y="636" as="targetPoint" />
            <Array as="points">
              <mxPoint x="215" y="636" />
              <mxPoint x="245" y="636" />
            </Array>
            <mxPoint x="280" y="635" as="sourcePoint" />
            <mxPoint as="offset" />
          </mxGeometry>
        </mxCell>
        <mxCell id="yZfTTTXvWRvX-hV6945o-31" value="Angular" style="shape=umlLifeline;perimeter=lifelinePerimeter;whiteSpace=wrap;html=1;container=1;collapsible=0;recursiveResize=0;outlineConnect=0;rounded=1;shadow=0;comic=0;labelBackgroundColor=none;strokeWidth=1;fontFamily=Verdana;fontSize=12;align=center;fontStyle=1" vertex="1" parent="1">
          <mxGeometry x="-50" y="80" width="100" height="640" as="geometry" />
        </mxCell>
      </root>
    </mxGraphModel>
  </diagram>
</mxfile>
